<svg width="440" height="60" viewBox="0 0 440 60" fill="none" xmlns="http://www.w3.org/2000/svg">
<path d="M126.17 30.3H130.97V48H126.57V45.65C124.003 47.4833 120.753 48.4 116.82 48.4C113.653 48.4 110.703 47.7 107.97 46.3C105.27 44.9 103.103 42.8667 101.47 40.2C99.8699 37.5 99.0699 34.3167 99.0699 30.65C99.0699 27.1833 99.8699 24.0833 101.47 21.35C103.103 18.6167 105.337 16.4833 108.17 14.95C111.037 13.3833 114.253 12.6 117.82 12.6C120.62 12.6 123.153 13.0667 125.42 14C127.72 14.9 129.67 16.2333 131.27 18L128.17 21.1C125.37 18.4 121.987 17.05 118.02 17.05C115.353 17.05 112.953 17.6333 110.82 18.8C108.72 19.9667 107.07 21.5833 105.87 23.65C104.67 25.7167 104.07 28.05 104.07 30.65C104.07 33.4167 104.67 35.8167 105.87 37.85C107.103 39.8833 108.72 41.4333 110.72 42.5C112.72 43.5333 114.887 44.05 117.22 44.05C118.853 44.05 120.437 43.7833 121.97 43.25C123.537 42.6833 124.937 41.8667 126.17 40.8V30.3ZM174.643 13V48H169.643V32.4H149.543V48H144.543V13H149.543V28.05H169.643V13H174.643ZM204.919 48.4C201.386 48.4 198.202 47.6333 195.369 46.1C192.536 44.5333 190.302 42.3833 188.669 39.65C187.069 36.9167 186.269 33.8667 186.269 30.5C186.269 27.1333 187.069 24.0833 188.669 21.35C190.302 18.6167 192.536 16.4833 195.369 14.95C198.202 13.3833 201.386 12.6 204.919 12.6C208.419 12.6 211.586 13.3833 214.419 14.95C217.252 16.4833 219.469 18.6167 221.069 21.35C222.669 24.05 223.469 27.1 223.469 30.5C223.469 33.9 222.669 36.9667 221.069 39.7C219.469 42.4 217.252 44.5333 214.419 46.1C211.586 47.6333 208.419 48.4 204.919 48.4ZM204.919 43.95C207.486 43.95 209.786 43.3667 211.819 42.2C213.886 41.0333 215.502 39.4333 216.669 37.4C217.869 35.3333 218.469 33.0333 218.469 30.5C218.469 27.9667 217.869 25.6833 216.669 23.65C215.502 21.5833 213.886 19.9667 211.819 18.8C209.786 17.6333 207.486 17.05 204.919 17.05C202.352 17.05 200.019 17.6333 197.919 18.8C195.852 19.9667 194.219 21.5833 193.019 23.65C191.852 25.6833 191.269 27.9667 191.269 30.5C191.269 33.0333 191.852 35.3333 193.019 37.4C194.219 39.4333 195.852 41.0333 197.919 42.2C200.019 43.3667 202.352 43.95 204.919 43.95ZM245.311 48.4C242.678 48.4 240.128 48 237.661 47.2C235.228 46.3667 233.311 45.3 231.911 44L233.761 40.1C235.095 41.3 236.795 42.2833 238.861 43.05C240.961 43.7833 243.111 44.15 245.311 44.15C248.211 44.15 250.378 43.6667 251.811 42.7C253.245 41.7 253.961 40.3833 253.961 38.75C253.961 37.55 253.561 36.5833 252.761 35.85C251.995 35.0833 251.028 34.5 249.861 34.1C248.728 33.7 247.111 33.25 245.011 32.75C242.378 32.1167 240.245 31.4833 238.611 30.85C237.011 30.2167 235.628 29.25 234.461 27.95C233.328 26.6167 232.761 24.8333 232.761 22.6C232.761 20.7333 233.245 19.05 234.211 17.55C235.211 16.05 236.711 14.85 238.711 13.95C240.711 13.05 243.195 12.6 246.161 12.6C248.228 12.6 250.261 12.8667 252.261 13.4C254.261 13.9333 255.978 14.7 257.411 15.7L255.761 19.7C254.295 18.7667 252.728 18.0667 251.061 17.6C249.395 17.1 247.761 16.85 246.161 16.85C243.328 16.85 241.195 17.3667 239.761 18.4C238.361 19.4333 237.661 20.7667 237.661 22.4C237.661 23.6 238.061 24.5833 238.861 25.35C239.661 26.0833 240.645 26.6667 241.811 27.1C243.011 27.5 244.628 27.9333 246.661 28.4C249.295 29.0333 251.411 29.6667 253.011 30.3C254.611 30.9333 255.978 31.9 257.111 33.2C258.278 34.5 258.861 36.25 258.861 38.45C258.861 40.2833 258.361 41.9667 257.361 43.5C256.361 45 254.845 46.2 252.811 47.1C250.778 47.9667 248.278 48.4 245.311 48.4ZM292.875 20.55C289.475 18.6167 285.842 17.4667 281.975 17.1V48H277.025V17.1C273.125 17.4667 269.475 18.6167 266.075 20.55L264.325 16.6C268.792 13.9333 273.825 12.6 279.425 12.6C285.092 12.6 290.159 13.9333 294.625 16.6L292.875 20.55ZM298.858 43.65H308.658C306.625 42.0167 305.058 40.0333 303.958 37.7C302.858 35.3667 302.308 32.8167 302.308 30.05C302.308 26.6833 303.108 23.6833 304.708 21.05C306.342 18.3833 308.558 16.3167 311.358 14.85C314.192 13.35 317.358 12.6 320.858 12.6C324.358 12.6 327.508 13.35 330.308 14.85C333.142 16.3167 335.358 18.3833 336.958 21.05C338.592 23.6833 339.408 26.6833 339.408 30.05C339.408 32.8167 338.858 35.3667 337.758 37.7C336.658 40.0333 335.092 42.0167 333.058 43.65H342.858V48H325.558V43.95C328.425 42.5167 330.608 40.6 332.108 38.2C333.642 35.8 334.408 33.1667 334.408 30.3C334.408 27.7333 333.825 25.45 332.658 23.45C331.525 21.4167 329.925 19.85 327.858 18.75C325.792 17.6167 323.458 17.05 320.858 17.05C318.258 17.05 315.925 17.6167 313.858 18.75C311.792 19.85 310.175 21.4167 309.008 23.45C307.875 25.45 307.308 27.7333 307.308 30.3C307.308 33.2 308.075 35.85 309.608 38.25C311.142 40.65 313.325 42.55 316.158 43.95V48H298.858V43.65Z" fill="white"/>
<path fill-rule="evenodd" clip-rule="evenodd" d="M42.6315 1.41048C50.3433 -0.47016 58.4393 -0.47016 66.151 1.41048L67.4345 1.72347C80.9672 5.02364 90.0214 16.9656 88.9075 30.0452L88.6754 32.7707C87.9539 41.2435 82.2232 48.6184 73.8472 51.8532C72.8631 52.2332 72.0363 52.9016 71.4899 53.7585L69.5501 56.8014C68.7176 58.1072 67.3973 59.0757 65.846 59.5185L65.757 59.5439C65.4622 59.6281 65.1544 59.6646 64.8467 59.6521C63.381 59.5923 62.1377 58.6229 61.8066 57.2818L61.7411 57.0166C61.4534 55.8513 59.6918 55.8339 59.378 56.9933L59.326 57.1854C58.9401 58.6116 57.6607 59.669 56.1044 59.8482L55.0564 59.9689C54.6961 60.0104 54.3318 60.0104 53.9715 59.9689L52.8051 59.8346C51.3202 59.6636 50.0995 58.6547 49.7313 57.294L49.658 57.0233C49.3587 55.9173 47.6695 55.9585 47.4318 57.0776L47.3941 57.2552C47.1078 58.603 45.8774 59.5929 44.4143 59.6526C44.1147 59.6648 43.8151 59.6292 43.5282 59.5473L43.4099 59.5135C41.8659 59.0728 40.5415 58.1271 39.6771 56.8482L37.6042 53.7814C37.0153 52.9102 36.1387 52.2439 35.1082 51.8842C25.8929 48.6678 19.613 40.6001 19.1507 31.3836L19.0317 29.0124C18.4008 16.4347 27.2467 5.16233 40.2332 1.99535L42.6315 1.41048ZM36.7154 32.8263C41.9102 32.8263 46.1214 28.8744 46.1214 23.9996C46.1214 19.1247 41.9102 15.1728 36.7154 15.1728C31.5207 15.1728 27.3095 19.1247 27.3095 23.9996C27.3095 28.8744 31.5207 32.8263 36.7154 32.8263ZM72.0671 32.8263C77.2619 32.8263 81.473 28.8744 81.473 23.9996C81.473 19.1247 77.2619 15.1728 72.0671 15.1728C66.8724 15.1728 62.6612 19.1247 62.6612 23.9996C62.6612 28.8744 66.8724 32.8263 72.0671 32.8263Z" fill="white"/>
</svg>
